<?xml version="1.0" encoding="UTF-8" standalone="no"?>
<svg
   xmlns:dc="http://purl.org/dc/elements/1.1/"
   xmlns:cc="http://creativecommons.org/ns#"
   xmlns:rdf="http://www.w3.org/1999/02/22-rdf-syntax-ns#"
   xmlns:svg="http://www.w3.org/2000/svg"
   xmlns="http://www.w3.org/2000/svg"
   version="1.1"
   id="svg2"
   viewBox="0 0 1341.9678 1196.7398"
   height="337.74658mm"
   width="378.73312mm">
  <defs
     id="defs4">
    <clipPath
       id="clipPath4286"
       clipPathUnits="userSpaceOnUse">
      <rect
         y="390.59558"
         x="-344.98141"
         height="656.19507"
         width="1504.7233"
         id="rect4288"
         style="opacity:0.98999999;fill:#000000;fill-opacity:0.5;stroke:none;stroke-width:5;stroke-linecap:butt;stroke-linejoin:round;stroke-miterlimit:4;stroke-dasharray:none;stroke-opacity:0.99607843" />
    </clipPath>
    <clipPath
       id="clipPath4334"
       clipPathUnits="userSpaceOnUse">
      <rect
         y="430.19354"
         x="-339.32455"
         height="650.53821"
         width="1476.439"
         id="rect4336"
         style="opacity:0.98999999;fill:#000000;fill-opacity:0.5;stroke:none;stroke-width:5;stroke-linecap:butt;stroke-linejoin:round;stroke-miterlimit:4;stroke-dasharray:none;stroke-opacity:0.99607843" />
    </clipPath>
  </defs>
  <metadata
     id="metadata7">
    <rdf:RDF>
      <cc:Work
         rdf:about="">
        <dc:format>image/svg+xml</dc:format>
        <dc:type
           rdf:resource="http://purl.org/dc/dcmitype/StillImage" />
        <dc:title></dc:title>
      </cc:Work>
    </rdf:RDF>
  </metadata>
  <g
     transform="translate(-197.42596,-197.13714)"
     id="layer2">
    <path
       id="path4310"
       d="m 555.977,977.04553 c -8.4658,-1.7918 -15.0712,-7.0803 -18.7383,-15.0025 -1.73491,-3.7482 -2.0881,-6.4563 -2.0881,-16.0112 0,-10.3187 0.26912,-12.0739 2.6198,-17.0865 5.0102,-10.6838 13.9828,-16.7935 25.9552,-17.6738 12.6597,-0.9308 22.3892,4.0241 27.7094,14.1115 2.5347,4.8058 2.7156,5.9815 2.7156,17.6488 0,11.62 -0.1875,12.852 -2.6636,17.5 -6.8816,12.9178 -21.1495,19.553 -35.51,16.5137 z m 14.3585,-11.075 c 7.3157,-2.7581 12.3151,-11.6644 12.3151,-21.9387 0,-10.1321 -5.178,-19.4725 -11.9261,-21.513 -4.808,-1.4538 -11.2475,-0.6379 -15.103,1.9135 -12.0483,7.9733 -11.2765,34.7665 1.1783,40.903 3.8614,1.9025 9.4754,2.166 13.5357,0.6352 z m 263.4619,11.0443 c -10.3172,-2.1661 -17.8385,-9.7776 -20.2325,-20.4753 -0.6456,-2.8851 -0.9788,-9.2267 -0.7418,-14.1222 0.3741,-7.7284 0.8719,-9.7127 3.8226,-15.2376 6.0717,-11.369 16.7073,-16.9659 30.1049,-15.8427 17.7893,1.4914 26.6839,13.2934 25.6913,34.0893 -0.526,11.0204 -3.0324,17.4677 -9.0994,23.4065 -7.3808,7.2248 -18.9044,10.4161 -29.5451,8.182 z m 14.5381,-11.0496 c 9.1706,-3.4747 14.08,-16.115 11.3557,-29.238 -1.9699,-9.4889 -8.1774,-14.9262 -17.0406,-14.9262 -8.5911,0 -13.8419,4.4392 -16.6414,14.0693 -2.5376,8.7289 -0.4899,20.9847 4.4295,26.5115 3.7307,4.1913 11.9492,5.8369 17.8968,3.5834 z m -505.55612,9.7218 c -0.83532,-1.0065 -1.08431,-10.0014 -0.89342,-32.2753 l 0.26464,-30.8799 5.5,0 5.5,0 0.25816,26 c 0.22854,23.0174 0.45121,26.1434 1.94113,27.25 1.04936,0.7794 5.01995,1.25 10.54663,1.25 l 8.86366,0 -0.30479,4.75 -0.30479,4.75 -15.10658,0.2753 c -11.95996,0.2179 -15.3478,-0.015 -16.26464,-1.1201 z m 48.51043,0.57 c -0.47195,-0.7636 20.10004,-60.5464 21.67055,-62.9752 1.10479,-1.7086 12.10098,-1.6649 13.5273,0.054 1.92017,2.3136 22.3675,60.7208 21.78695,62.2337 -0.71095,1.8527 -9.93351,2.0252 -11.36925,0.2126 -0.54457,-0.6875 -1.74779,-3.5732 -2.67382,-6.4127 -0.92604,-2.8395 -2.37238,-5.427 -3.21411,-5.75 -3.08828,-1.1851 -23.08374,-0.6355 -24.11207,0.6627 -0.54457,0.6875 -1.74779,3.5732 -2.67382,6.4127 -0.92604,2.8395 -2.37238,5.427 -3.21411,5.75 -2.22439,0.8536 -9.1669,0.7198 -9.72762,-0.1875 z m 36.36448,-23.9752 c 0.007,-3.1428 -7.27444,-23.3264 -8.29239,-22.9871 -1.36209,0.454 -8.90342,21.7941 -8.27787,23.4242 0.35804,0.9331 2.82744,1.3129 8.53519,1.3129 6.98086,0 8.03186,-0.2289 8.03507,-1.75 z m 42.49443,23.6057 c -0.29025,-0.7564 -0.40856,-15.3208 -0.26292,-32.3655 l 0.2648,-30.9902 16,0 c 15.04869,0 16.22441,0.1395 19.77424,2.3465 4.59635,2.8577 6.72576,6.7107 6.72576,12.1696 0,4.8393 -1.11537,7.291 -5.36999,11.8038 -3.06921,3.2554 -3.09116,3.3477 -1.13001,4.7471 4.42955,3.1609 6.52199,5.8009 7.51219,9.4783 2.30359,8.5548 -3.56746,18.7888 -12.52011,21.824 -5.90507,2.002 -30.30624,2.7786 -30.99396,0.9864 z m 26.35685,-10.2807 c 1.51561,-0.7838 3.29327,-2.6049 3.95034,-4.0471 3.82275,-8.39 -2.54379,-14.3134 -14.34931,-13.3505 l -3.956,0.3226 -0.29497,7.9116 c -0.16224,4.3514 -0.0639,8.5139 0.21861,9.25 0.70136,1.8277 10.84721,1.7668 14.43133,-0.087 z m 1.29368,-30.4153 c 3.48581,-3.9013 3.61721,-7.1578 0.43798,-10.8539 -2.20664,-2.5654 -2.99902,-2.8058 -9.25,-2.8058 l -6.83663,0 -0.29697,7.4064 c -0.41468,10.3422 -0.36149,10.4178 6.95996,9.8882 5.36038,-0.3877 6.49405,-0.8463 8.98566,-3.6349 z m 121.56415,41.2197 c -0.3921,-0.392 -0.7128,-15.0709 -0.7128,-32.6198 l 0,-31.9071 14.25,0.3237 c 11.8436,0.2691 14.9146,0.6615 18.1855,2.3238 5.8246,2.9601 7.9113,6.4162 8.3083,13.7608 0.4438,8.2098 -2.2357,13.112 -9.27,16.96 -2.7356,1.4964 -4.9183,3.367 -4.8504,4.1569 0.068,0.7898 4.0586,6.9147 8.8684,13.6108 5.6659,7.8881 8.4025,12.5172 7.7723,13.1474 -0.5349,0.5349 -3.6257,0.8357 -6.8684,0.6684 l -5.8957,-0.3043 -8.5,-12.445 c -4.675,-6.8447 -8.95,-12.36 -9.5,-12.2562 -0.5689,0.1074 -1.2155,5.4722 -1.5,12.445 l -0.5,12.2562 -4.5372,0.2961 c -2.4955,0.1629 -4.858,-0.025 -5.25,-0.4167 z m 24.8872,-38.7794 c 3.7616,-3.7616 4.2973,-6.9642 1.9304,-11.5412 -2.2429,-4.3374 -12.3163,-6.8729 -15.3304,-3.8588 -1.2723,1.2723 -1.7329,16.9338 -0.5333,18.1333 0.3666,0.3667 2.8866,0.6667 5.6,0.6667 4.2771,0 5.3856,-0.4523 8.3333,-3.4 z m 37.9642,38.5039 c -0.6263,-1.0135 19.9386,-60.7999 21.6037,-62.8062 1.4145,-1.7044 12.2432,-1.7425 13.5539,-0.048 1.8445,2.385 22.462,61.6436 21.8128,62.694 -0.7365,1.1917 -9.4427,1.4189 -11.1397,0.2907 -0.6078,-0.4041 -1.6704,-2.5347 -2.3614,-4.7347 -2.665,-8.4846 -2.6932,-8.5 -15.5335,-8.5 -12.8403,0 -12.8685,0.015 -15.5335,8.5 -0.691,2.2 -1.7536,4.3306 -2.3614,4.7347 -1.5699,1.0437 -9.3779,0.942 -10.0409,-0.1308 z m 36.0328,-23.496 c 0.6525,-1.7004 -6.6975,-22.8287 -8.097,-23.2756 -1.0063,-0.3213 -8.5,19.9852 -8.5,23.0334 0,1.3767 1.2658,1.6343 8.0314,1.6343 5.94,0 8.1705,-0.3625 8.5656,-1.3921 z m 51.5826,23.1085 c -0.7791,-0.9388 -1.2306,-9.6644 -1.4124,-27.2981 l -0.2672,-25.9183 -8,-0.5 -8,-0.5 0,-4.5 0,-4.5 22.5,0 22.5,0 0,4.5 0,4.5 -8,0.5 -8,0.5 -0.5,27 -0.5,27 -4.5876,0.2982 c -2.9929,0.1945 -4.9856,-0.1815 -5.7328,-1.0818 z m 125.9682,-0.038 c -0.8598,-1.036 -1.1057,-9.7428 -0.9124,-32.2982 l 0.2646,-30.8799 14.5,0 c 12.1648,0 15.1071,0.3017 18.2697,1.8733 5.4085,2.6876 8.0551,6.906 8.5086,13.5613 0.5448,7.9951 -2.6342,13.6755 -9.5482,17.0615 -2.812,1.3772 -5.1392,3.0629 -5.1714,3.7461 -0.032,0.6833 4.0275,6.9246 9.0217,13.8696 5.6305,7.8299 8.7253,12.9825 8.1458,13.562 -0.5141,0.5141 -3.5878,0.7978 -6.8305,0.6305 l -5.8957,-0.3043 -8.1234,-12 c -4.4679,-6.6 -8.8413,-12.1428 -9.7187,-12.3173 -1.3794,-0.2743 -1.6333,1.3497 -1.8766,12 l -0.2813,12.3173 -4.5876,0.2982 c -3.0462,0.1979 -4.9831,-0.1784 -5.7646,-1.1201 z m 25.308,-37.6366 c 5.068,-4.7612 4.0791,-12.6107 -1.9492,-15.4713 -3.929,-1.8645 -9.6258,-2.051 -11.3066,-0.3702 -1.3238,1.3238 -1.7094,16.9483 -0.45,18.2298 1.6009,1.629 11.2125,-0.046 13.7058,-2.3883 z m 51.0813,37.7637 c -0.2434,-0.7179 -0.5809,-6.0302 -0.7501,-11.8052 l -0.3075,-10.5 -9.7278,-19.962 c -5.3503,-10.9791 -9.3474,-20.3423 -8.8825,-20.8072 0.4649,-0.4649 3.255,-0.707 6.2002,-0.538 l 5.355,0.3072 6.0822,13.3438 c 3.3453,7.3391 6.5123,13.3593 7.0378,13.3783 0.5256,0.019 2.8626,-3.9608 5.1935,-8.8438 9.2887,-19.4599 7.9941,-17.8382 14.5121,-18.1782 3.5719,-0.1863 5.75,0.1016 5.75,0.76 0,0.5829 -4.3744,9.7179 -9.7208,20.2999 l -9.7209,19.24 -0.5291,12 -0.5292,12 -4.7602,0.3052 c -3.2462,0.2081 -4.9009,-0.1099 -5.2027,-1 z m -364.8196,-129.834 c -12.4715,-3.1437 -19.4998,-12.935 -20.4722,-28.5203 -0.996,-15.965 5.2401,-28.1046 17.5403,-34.1447 4.9157,-2.414 6.9024,-2.8036 14.2144,-2.7877 10.1798,0.022 16.0692,2.4079 21.443,8.686 10.4599,12.2199 9.7299,35.4175 -1.5175,48.2276 -6.3532,7.2359 -20.7503,11.1752 -31.208,8.5391 z m 17.732,-12.2412 c 2.747,-1.5559 4.8306,-3.9106 6.8431,-7.7335 2.6722,-5.0763 2.8634,-6.1517 2.501,-14.0663 -0.6486,-14.1675 -6.2204,-20.9302 -17.2444,-20.9302 -11.2826,0 -17.5492,8.1375 -17.5492,22.7886 0,14.0228 6.2834,22.2339 16.9844,22.1949 2.8059,-0.01 6.011,-0.8634 8.4651,-2.2535 z m -282.34169,10.8999 c -0.80834,-0.974 -1.06058,-10.2978 -0.87245,-32.25 l 0.26464,-30.8802 7.93464,0 7.93465,0 3.51998,6 c 1.93599,3.3 7.3654,12.6765 12.06536,20.8366 4.69995,8.1601 8.99537,14.794 9.54537,14.7419 0.63148,-0.06 1,-7.7386 1,-20.8366 l 0,-20.7419 5.5,0 5.5,0 0.26464,30.8799 c 0.18813,21.9522 -0.0641,31.276 -0.87245,32.25 -1.21867,1.4684 -12.50957,1.9403 -14.4715,0.6048 -1.18357,-0.8057 -17.56167,-28.5886 -21.80259,-36.9847 -2.52562,-5.0002 -4.52778,-6.7057 -4.69566,-4 -0.0427,0.6875 -0.0104,9.7151 0.0716,20.0613 0.1055,13.3047 -0.20036,19.2324 -1.04489,20.25 -1.51756,1.8285 -8.34126,1.8761 -9.84135,0.069 z m 74.28944,-0.037 c -0.49873,-1.2996 18.1456,-56.8061 20.78759,-61.8871 0.77977,-1.4997 2.01174,-1.7461 7.50158,-1.5 l 6.56859,0.2943 11.26142,31.5 c 6.19378,17.325 11.05985,31.8375 10.81348,32.25 -0.75829,1.2696 -11.00966,0.8451 -12.07515,-0.5 -0.54457,-0.6875 -1.74518,-3.5654 -2.66803,-6.3953 -1.97573,-6.0586 -2.59545,-6.3274 -14.58673,-6.3274 -12.03569,0 -12.32425,0.1395 -15.10433,7.3012 l -2.39567,6.1711 -4.7602,0.3052 c -3.53654,0.2268 -4.9099,-0.085 -5.34255,-1.2124 z m 35.9915,-22.4128 c 0.79091,-1.2797 -7.56453,-24.2881 -8.68458,-23.9147 -1.29033,0.4301 -8.76486,21.8419 -8.19815,23.4847 0.49116,1.4238 16.02403,1.8194 16.88273,0.43 z m 48.32402,23.1994 c -0.39202,-0.3924 -0.71277,-11.9177 -0.71277,-25.6122 0,-15.2512 -0.40111,-25.6486 -1.03518,-26.8333 -0.88153,-1.6472 -2.14321,-1.9343 -8.5,-1.9343 l -7.46482,0 0,-5 0,-5 22.5,0 22.5,0 0,5 0,5 -7.44098,0 c -4.85465,0 -7.72218,0.4345 -8.25,1.25 -0.44496,0.6875 -1.03402,12.95 -1.30902,27.25 l -0.5,26 -4.53723,0.2961 c -2.49548,0.1629 -4.85798,-0.025 -5.25,-0.4167 z m 49.74103,-0.6392 c -0.2659,-0.6928 -0.3642,-15.2053 -0.2186,-32.25 l 0.2648,-30.9902 5.5,0 5.5,0 0.2646,30.8799 c 0.1882,21.9522 -0.064,31.276 -0.8724,32.25 -1.451,1.7483 -9.7761,1.8363 -10.4384,0.1103 z m 120.259,0.6392 c -0.3921,-0.392 -0.7128,-15.0567 -0.7128,-32.5881 l 0,-31.8754 7.7315,0.292 7.7315,0.2921 10.5185,18.1634 c 5.7852,9.9899 11.3018,19.5815 12.2592,21.3148 0.9573,1.7333 2.1948,2.8707 2.75,2.5276 0.6272,-0.3877 1.0093,-8.5709 1.0093,-21.6171 l 0,-20.9932 5.25,0.3022 5.25,0.3023 0,32 0,32 -6.84,0.2977 c -4.0919,0.1782 -7.3925,-0.1607 -8.2151,-0.8434 -1.3777,-1.1434 -18.3067,-29.7154 -22.3399,-37.7043 -1.1801,-2.3375 -2.5776,-4.25 -3.1054,-4.25 -0.5745,0 -1.0682,8.531 -1.2297,21.25 l -0.2699,21.25 -4.5372,0.2961 c -2.4955,0.1629 -4.858,-0.025 -5.25,-0.4167 z m 73.7249,-0.6811 c -0.2747,-0.7159 4.3852,-15.2284 10.3553,-32.25 l 10.8548,-30.9483 6.9261,0 6.9261,0 11.2612,31.4388 c 6.37,17.7836 10.884,31.816 10.3928,32.3072 -0.4776,0.4776 -3.2753,0.7302 -6.2169,0.5612 l -5.3486,-0.3072 -2.3419,-6.1458 c -2.7401,-7.1905 -3.021,-7.3213 -15.7741,-7.3405 -10.6227,-0.016 -12.5489,0.9429 -14.3969,7.1677 -0.7052,2.3753 -1.7408,4.8811 -2.3013,5.5686 -1.3702,1.6805 -9.6878,1.6389 -10.3366,-0.052 z m 36.0563,-22.9483 c 0.5667,-1.6428 -6.9078,-23.0546 -8.1982,-23.4847 -1.12,-0.3734 -9.4755,22.635 -8.6846,23.9147 0.8587,1.3894 16.3916,0.9938 16.8828,-0.43 z m 42.9696,23.0157 c -0.2713,-0.7068 -0.374,-15.2308 -0.2284,-32.2755 l 0.2648,-30.9902 5.5,0 5.5,0 0.2582,26 c 0.2285,23.0174 0.4512,26.1434 1.9411,27.25 1.0494,0.7794 5.0199,1.25 10.5466,1.25 l 8.8637,0 -0.3048,4.75 -0.3048,4.75 -15.7716,0.2755 c -12.1281,0.2119 -15.8855,-0.021 -16.2648,-1.0098 z m -666.9636,-26.7502 c -42.62291,-3.8021 -67.38215,-24.7541 -67.48264,-57.1059 -0.0223,-7.1809 3.16658,-19.6281 6.71079,-26.1944 3.52541,-6.5314 12.68267,-16.3775 19.77393,-21.2615 3.02386,-2.0826 5.49792,-4.3752 5.49792,-5.0946 0,-0.7195 -1.2375,-1.9576 -2.75,-2.7514 -8.23336,-4.321 -14.4919,-15.1113 -14.52348,-25.0396 -0.038,-11.9446 4.51228,-20.7771 14.66334,-28.463 l 5.88986,-4.4595 -3.88986,-3.0205 c -17.1824,-13.3423 -25.34102,-32.6796 -24.08005,-57.0737 0.65866,-12.74212 2.46449,-20.14924 7.3633,-30.20275 9.1436,-18.76481 27.79406,-33.2573 50.82689,-39.49543 6.63776,-1.79776 10.89475,-2.18261 25,-2.26016 9.35,-0.0514 23.075,0.46795 30.5,1.15411 7.425,0.68617 25.2574,1.24867 39.62756,1.25 21.15137,0.002 26.34846,0.26861 27.28744,1.40001 0.75411,0.90865 1.05933,4.8444 0.87245,11.25 l -0.28745,9.85242 -16.46161,0.13484 c -10.04729,0.0823 -16.59249,0.52747 -16.7975,1.1425 -0.18474,0.55421 1.25637,2.74354 3.20245,4.86516 4.09672,4.46624 8.50843,12.49628 11.18443,20.3575 2.57753,7.57195 2.58646,28.6635 0.0161,38 -3.88074,14.0963 -11.50666,26.1352 -22.14386,34.9582 -6.62244,5.493 -21.07374,12.5576 -31,15.1546 -10.25132,2.682 -35.62014,3.7014 -48.45693,1.9472 -8.27972,-1.1315 -9.08811,-1.0777 -12.88068,0.8572 -10.7887,5.5039 -13.80944,20.9445 -5.28032,26.9904 6.99949,4.9617 10.44344,5.3911 49.11793,6.1255 32.81564,0.6231 37.30753,0.9093 44.5,2.8358 27.10825,7.2608 41.5,25.2754 41.5,51.9469 0,40.9678 -39.08245,70.1941 -97,72.5376 -6.325,0.2559 -15.55,0.1041 -20.5,-0.3375 z m 48,-25.9409 c 11.95988,-3.1497 21.68834,-8.1592 28.54382,-14.6982 8.16204,-7.7853 11.18839,-14.3321 11.73068,-25.3768 0.57281,-11.6662 -1.80109,-17.9957 -9.32997,-24.8767 -10.54225,-9.635 -18.32532,-11.076 -59.97202,-11.1035 -33.08308,-0.022 -29.71219,-0.6052 -39.80931,6.8899 -11.27801,8.3716 -18.43016,22.9469 -17.42216,35.5044 1.42139,17.7075 15.17078,30.1799 38.75896,35.159 9.90855,2.0916 37.12936,1.2331 47.5,-1.4981 z m -11.08756,-156.5741 c 15.51057,-3.2859 26.92406,-11.4534 33.01271,-23.6239 4.65249,-9.2998 5.94538,-16.2477 5.28048,-28.377 -0.85481,-15.59373 -4.76111,-24.64124 -14.60189,-33.81994 -8.8943,-8.29591 -21.82829,-12.64533 -37.60374,-12.64533 -26.87572,0 -47.08788,13.92844 -52.96709,36.50023 -1.75444,6.73575 -1.99489,18.70064 -0.53412,26.57854 1.48812,8.0254 7.22794,18.919 12.55632,23.8305 5.47711,5.0487 14.83178,9.6177 23.57575,11.515 8.45399,1.8344 22.73016,1.8535 31.28158,0.042 z m 165.58756,80.9462 c -40.93671,-8.7784 -62.22961,-38.7423 -64.62878,-90.9471 -2.46011,-53.53058 22.4208,-93.72754 66.34046,-107.17798 8.17928,-2.50491 10.07038,-2.69244 27.28832,-2.70599 15.97501,-0.0126 19.59189,0.2848 26.5,2.17886 35.74995,9.80185 55.28769,36.14431 59.55018,80.29071 3.54901,36.7567 -6.37945,70.3044 -27.39773,92.5753 -12.79481,13.5573 -28.06981,22.1398 -45.86029,25.7674 -9.62665,1.963 -32.67776,1.9733 -41.79216,0.019 z m 44.17871,-25.7049 c 9.01114,-3.2951 15.68113,-7.7434 22.25025,-14.8388 14.19908,-15.3367 21.43032,-43.6784 18.6087,-72.9339 -3.31893,-34.41192 -16.07863,-54.07062 -40.15461,-61.86572 -6.06161,-1.96257 -18.60604,-2.9513 -25.87087,-2.0391 -36.73751,4.61293 -57.77203,39.72523 -53.17857,88.76942 3.48674,37.2277 18.63864,58.3997 46.29725,64.6918 9.28586,2.1125 23.56664,1.3177 32.04785,-1.7837 z m 576.16289,25.8373 c -42.9472,-8.1468 -64.7186,-37.5822 -66.9955,-90.5795 -2.4209,-56.34699 21.3302,-97.17867 63.1539,-108.57118 9.3385,-2.54374 31.2879,-3.05756 41.5896,-0.9736 31.8309,6.43916 51.2977,28.10612 56.5249,62.91332 1.7449,11.61906 1.8154,26.66786 0.1355,28.93956 -1.148,1.5525 -6.5538,1.7109 -66.25,1.9412 l -65,0.2507 -0.3139,7 c -0.1726,3.85 0.1884,11.3688 0.8022,16.7084 3.7816,32.8962 18.0358,51.413 45.0117,58.4721 15.3185,4.0086 46.0434,1.2924 65.278,-5.7709 4.5221,-1.6606 8.9754,-3.2631 9.8962,-3.5612 2.0036,-0.6486 3.0385,4.6507 3.2144,16.4597 l 0.1114,7.4735 -7,2.4425 c -15.8736,5.5386 -28.4074,7.4477 -51.5,7.8442 -15.3193,0.263 -23.5579,-0.021 -28.6584,-0.9888 z m 63.7959,-128.6531 c 1.8155,-0.9716 1.9412,-1.7075 1.3241,-7.74996 -2.1646,-21.19637 -14.0526,-36.31503 -32.7802,-41.68868 -8.1746,-2.34559 -22.4077,-2.18873 -30.4295,0.33536 -16.9909,5.34623 -30.6046,21.00504 -35.7595,41.1315 -1.5655,6.11218 -1.5592,6.52338 0.1183,7.74998 2.3214,1.6975 94.3783,1.9069 97.5268,0.2218 z m -1310.1375,126.1094 c 0,-0.9324 94.27203,-254.96442 97.36638,-262.37023 l 1.53157,-3.66557 15.99201,0 c 8.7956,0 16.24501,0.40937 16.55424,0.90972 2.22544,3.60084 98.39722,264.64888 97.74035,265.30578 -0.46041,0.4604 -7.94824,0.7127 -16.63964,0.5608 l -15.80254,-0.2763 -11.2167,-31.5955 c -6.16918,-17.3776 -11.53777,-32.1151 -11.9302,-32.75 -0.52638,-0.8517 -16.31587,-1.1545 -60.20551,-1.1545 l -59.49201,0 -1.33022,3.25 c -0.73162,1.7875 -5.93821,16.075 -11.57019,31.75 -5.63198,15.675 -10.69052,29.0625 -11.2412,29.75 -1.23157,1.5376 -29.75634,1.8115 -29.75634,0.2858 z m 162.41821,-88.6428 c 0.86999,-0.3338 1.58179,-1.2834 1.58179,-2.1102 0,-0.8267 -9.70031,-27.834 -21.55623,-60.01619 -11.85593,-32.18218 -22.96656,-63.63261 -24.6903,-69.88983 -1.72373,-6.25723 -3.64964,-11.37678 -4.27981,-11.37678 -0.63017,0 -1.91392,2.8125 -2.85277,6.25 -3.49714,12.80425 -8.30321,26.59332 -27.71569,79.51882 -10.94786,29.84788 -19.9052,54.89788 -19.9052,55.66668 0,0.7688 0.5625,1.6248 1.25,1.9022 1.80199,0.7271 96.27879,0.7804 98.16821,0.055 z m 98.05346,88.3854 c -0.26803,-0.7031 -0.3713,-44.9284 -0.2295,-98.2784 l 0.25783,-97 13.5,0 13.5,0 0.31302,5.5 c 0.29751,5.22739 -1.18745,25.21824 -2.46988,33.25 -1.04689,6.55661 1.23065,4.16958 6.67889,-7 4.48144,-9.1875 6.42341,-11.92571 13.36078,-18.8389 11.78779,-11.74671 24.93667,-17.37258 40.61719,-17.37842 8.50593,-0.003 8.41898,-0.16839 7.63448,14.50622 -0.37419,6.99946 -0.93826,13.1436 -1.25348,13.65365 -0.3166,0.51226 -2.8801,0.64466 -5.72707,0.29579 -6.91,-0.84677 -17.71018,1.01136 -24.55867,4.22522 -7.05039,3.30861 -16.5531,12.83751 -20.74487,20.80205 -3.81702,7.25252 -7.78352,19.61939 -10.04335,31.31349 -1.38505,7.1673 -1.77371,17.9483 -2.24133,62.1709 l -0.56571,53.5 -13.7705,0.2784 c -10.4645,0.2115 -13.88751,-0.029 -14.25783,-1 z m 519,0 c -0.26803,-0.7031 -0.3713,-44.9284 -0.2295,-98.2784 l 0.25783,-97 13.5,0 13.5,0 0.3259,7.5 c 0.1793,4.125 -0.1847,13.06108 -0.8087,19.85796 -0.624,6.79688 -0.8464,12.64617 -0.4941,12.99843 0.7592,0.75925 1.8108,-0.71522 6.4769,-9.08114 5.2949,-9.49335 17.7328,-21.42701 27.7133,-26.58972 11.9391,-6.17585 21.2565,-8.39225 35.7867,-8.5128 14.1383,-0.11729 21.3826,1.26176 31.2307,5.94517 9.3032,4.42432 16.0817,11.17681 20.6976,20.61825 7.3318,14.9966 7.0717,11.43729 7.0717,96.76385 l 0,76.5 -14,0 -14,0 -0.5359,-72.5 c -0.4833,-65.3797 -0.7094,-73.08927 -2.302,-78.5 -4.8076,-16.33283 -14.3828,-23.94584 -31.6621,-25.17372 -24.2792,-1.7253 -46.474,14.53513 -56.9622,41.73185 -6.3198,16.38797 -6.3037,16.20687 -6.9481,77.94187 l -0.5897,56.5 -13.7705,0.2784 c -10.4645,0.2115 -13.88751,-0.029 -14.25783,-1 z m 206.19503,0.5549 c -0.3667,-0.3666 -0.6667,-44.1865 -0.6667,-97.3775 0,-81.32568 0.221,-96.89436 1.3895,-97.86406 0.9322,-0.7737 5.6212,-1.06078 14.25,-0.87244 l 12.8605,0.2807 0,8 c 0,4.4 -0.377,13.5125 -0.8377,20.25 -0.4608,6.7375 -0.4608,12.24893 0,12.24762 0.4607,-10e-4 2.1691,-2.55035 3.7964,-5.66455 6.5363,-12.50854 18.5022,-24.70133 29.9963,-30.56521 13.1006,-6.6834 30.5832,-9.693 45.8483,-7.89269 21.4389,2.52843 34.454,10.98337 42.2824,27.46773 6.4028,13.48237 6.3777,13.10316 6.3969,96.9071 l 0.017,75.75 -13.9344,0 -13.9345,0 -0.3988,-71.25 c -0.4359,-77.87602 -0.5215,-79.08004 -6.3904,-89.86311 -3.2982,-6.05986 -6.9843,-9.34148 -14.3419,-12.76795 -4.7898,-2.23064 -6.8559,-2.56394 -16,-2.58116 -7.622,-0.0144 -12.0075,0.48834 -16,1.83399 -24.5621,8.27856 -41.1949,33.25961 -44.8876,67.41743 -0.6597,6.1015 -1.1124,30.0129 -1.1124,58.75 l 0,48.4608 -13.8333,0 c -7.6084,0 -14.1334,-0.3 -14.5,-0.6667 z"
       style="fill:#2b2b2b"
       transform="translate(463.77536,416.10162)" />
    <g
       id="g4272"
       transform="translate(463.77536,416.10162)">
      <path
         style="fill:#be002d;fill-opacity:1;fill-rule:evenodd;stroke:none;stroke-width:1px;stroke-linecap:butt;stroke-linejoin:miter;stroke-opacity:1"
         d="m 270.89306,-218.96448 227.64622,0.76455 -113.84392,196.628576 z"
         id="path4260" />
      <path
         style="fill:#fc0000;fill-opacity:1;fill-rule:evenodd;stroke:none;stroke-width:1px;stroke-linecap:butt;stroke-linejoin:miter;stroke-opacity:1"
         d="m 498.52946,-218.19157 228.74288,396.04902 -227.59437,0 L 384.69532,-21.5772 Z"
         id="path4262" />
      <path
         style="fill:#3d008c;fill-opacity:1;fill-rule:evenodd;stroke:none;stroke-width:1px;stroke-linecap:butt;stroke-linejoin:miter;stroke-opacity:1"
         d="M 727.27234,177.85745 613.82764,375.84735 499.67797,177.85745 Z"
         id="path4264" />
      <path
         style="fill:#00a4f1;fill-opacity:1;fill-rule:evenodd;stroke:none;stroke-width:1px;stroke-linecap:butt;stroke-linejoin:miter;stroke-opacity:1"
         d="m 613.38194,375.07421 -458.3685,0.77314 114.21488,-197.9899 230.44965,0 z"
         id="path4266" />
      <path
         style="fill:#009462;fill-opacity:1;fill-rule:evenodd;stroke:none;stroke-width:1px;stroke-linecap:butt;stroke-linejoin:miter;stroke-opacity:1"
         d="m 154.59778,375.84735 -113.01167,-197.9899 227.64221,0 z"
         id="path4268" />
      <path
         style="fill:#6bd741;fill-opacity:1;fill-rule:evenodd;stroke:none;stroke-width:1px;stroke-linecap:butt;stroke-linejoin:miter;stroke-opacity:1"
         d="M 41.58611,177.85745 270.89306,-218.96448 384.69532,-21.5772 269.22832,177.85745 Z"
         id="path4270" />
    </g>
  </g>
</svg>
